<svg width="16" height="17" viewBox="0 0 16 17" fill="none" xmlns="http://www.w3.org/2000/svg">
<path fill-rule="evenodd" clip-rule="evenodd" d="M13.1583 7.70873C13.4527 7.64543 13.5621 7.6863 13.586 7.6978C13.5959 7.71833 13.6182 7.78567 13.6027 7.94453C13.5803 8.17517 13.4834 8.50153 13.2857 8.91003C12.8933 9.72103 12.1695 10.721 11.1953 11.6953C10.221 12.6695 9.22107 13.3933 8.41004 13.7857C8.00154 13.9834 7.67517 14.0802 7.44454 14.1027C7.28571 14.1182 7.21837 14.0958 7.19781 14.086C7.18631 14.0621 7.14544 13.9527 7.20874 13.6583C7.28541 13.3018 7.48964 12.8219 7.83461 12.2606C8.25251 11.5806 8.84991 10.8248 9.58737 10.0873C10.3248 9.3499 11.0806 8.75247 11.7606 8.33457C12.3219 7.98963 12.8018 7.7854 13.1583 7.70873ZM1.47064 10.2468L6.25324 15.0294C6.62711 15.4032 7.13424 15.4726 7.57391 15.4298C8.01951 15.3863 8.50494 15.221 8.99077 14.986C9.96841 14.5129 11.0873 13.6889 12.1381 12.6381C13.1889 11.5873 14.0129 10.4684 14.486 9.49077C14.721 9.00493 14.8863 8.5195 14.9298 8.0739C14.9726 7.63423 14.9032 7.1271 14.5294 6.75323L9.74677 1.97062C9.28424 1.50809 8.62551 1.50858 8.09537 1.62259C7.53604 1.74288 6.91114 2.02806 6.27987 2.416C5.49927 2.89572 4.66271 3.56118 3.86194 4.36193C3.06119 5.16267 2.39573 5.99927 1.91601 6.77987C1.52808 7.41113 1.24289 8.03603 1.1226 8.59537C1.00859 9.1255 1.0081 9.78423 1.47064 10.2468Z" fill="#0D141C"/>
</svg>
